# xmcd
#
# Track frame offsets:
#	150
#	15853
#	31246
#	46804
#	61238
#	76317
#	91591
#	106566
#	121977
#	140575
#	154689
#	176289
#
# Disc length: 2578 seconds
#
# Revision: 0
# Processed by: cddbd v1.5.1PL0 Copyright (c) Steve Scherf et al.
# Submitted via: dBpowerAMP V4.0
#
DISCID=790a100c
DTITLE=Poverty Plainsmen - Lap Of Luxury
DYEAR=2005
DGENRE=Country
TTITLE0=Lap Of Luxury
TTITLE1=The Secret To My Success
TTITLE2=The Man You Think I Am
TTITLE3=Good To Go
TTITLE4=Sister Golden Hair
TTITLE5=My Heart Has A Mind Of It's Own
TTITLE6=Rock On Farm Boy (ROFB)
TTITLE7=What Would You Say
TTITLE8=The Miracle Man
TTITLE9=He's A Lot Like You
TTITLE10=God Bless The Farmer
TTITLE11=Everybody Say Eh!
EXTD=
EXTT0=
EXTT1=
EXTT2=
EXTT3=
EXTT4=
EXTT5=
EXTT6=
EXTT7=
EXTT8=
EXTT9=
EXTT10=
EXTT11=
PLAYORDER=
